<mxfile host="app.diagrams.net" agent="Mozilla/5.0 (Windows NT 10.0; Win64; x64) AppleWebKit/537.36 (KHTML, like Gecko) Chrome/134.0.0.0 Safari/537.36" version="26.2.9">
  <diagram name="Page-1" id="ldx85inmVdWJJTkmb8Ni">
    <mxGraphModel dx="1215" dy="657" grid="1" gridSize="10" guides="1" tooltips="1" connect="1" arrows="1" fold="1" page="1" pageScale="1" pageWidth="850" pageHeight="1100" math="0" shadow="0">
      <root>
        <mxCell id="0" />
        <mxCell id="1" parent="0" />
        <mxCell id="UhSYlFksJlborrTGf3yx-26" value="" style="group" vertex="1" connectable="0" parent="1">
          <mxGeometry x="190" y="80" width="490" height="855" as="geometry" />
        </mxCell>
        <mxCell id="UhSYlFksJlborrTGf3yx-23" value="&lt;font style=&quot;font-size: 16px;&quot;&gt;Use Case Diagram&lt;/font&gt;" style="rounded=1;arcSize=9;fillColor=#F7F8F9;align=center;spacingLeft=5;strokeColor=#DEE1E6;html=1;strokeWidth=2;fontSize=12;container=0;" vertex="1" parent="UhSYlFksJlborrTGf3yx-26">
          <mxGeometry x="90" width="290" height="40" as="geometry" />
        </mxCell>
        <mxCell id="UhSYlFksJlborrTGf3yx-25" value="" style="group" vertex="1" connectable="0" parent="UhSYlFksJlborrTGf3yx-26">
          <mxGeometry y="85" width="490" height="770" as="geometry" />
        </mxCell>
        <mxCell id="UhSYlFksJlborrTGf3yx-5" value="&lt;font style=&quot;font-size: 16px;&quot;&gt;User&lt;/font&gt;" style="shape=umlActor;verticalLabelPosition=bottom;verticalAlign=top;html=1;outlineConnect=0;container=0;" vertex="1" parent="UhSYlFksJlborrTGf3yx-25">
          <mxGeometry y="340" width="50" height="80" as="geometry" />
        </mxCell>
        <mxCell id="UhSYlFksJlborrTGf3yx-6" value="" style="rounded=0;whiteSpace=wrap;html=1;container=0;" vertex="1" parent="UhSYlFksJlborrTGf3yx-25">
          <mxGeometry x="180" width="310" height="770" as="geometry" />
        </mxCell>
        <mxCell id="UhSYlFksJlborrTGf3yx-8" value="&lt;font style=&quot;font-size: 16px;&quot;&gt;Start Packet Capture&lt;/font&gt;" style="ellipse;whiteSpace=wrap;html=1;container=0;" vertex="1" parent="UhSYlFksJlborrTGf3yx-25">
          <mxGeometry x="250" y="50" width="170" height="80" as="geometry" />
        </mxCell>
        <mxCell id="UhSYlFksJlborrTGf3yx-9" value="&lt;font style=&quot;font-size: 16px;&quot;&gt;Read PCAP Files&lt;/font&gt;" style="ellipse;whiteSpace=wrap;html=1;container=0;" vertex="1" parent="UhSYlFksJlborrTGf3yx-25">
          <mxGeometry x="250" y="280" width="170" height="80" as="geometry" />
        </mxCell>
        <mxCell id="UhSYlFksJlborrTGf3yx-10" value="&lt;font style=&quot;font-size: 16px;&quot;&gt;View Information of Software and creater&lt;/font&gt;" style="ellipse;whiteSpace=wrap;html=1;container=0;" vertex="1" parent="UhSYlFksJlborrTGf3yx-25">
          <mxGeometry x="250" y="510" width="170" height="80" as="geometry" />
        </mxCell>
        <mxCell id="UhSYlFksJlborrTGf3yx-11" value="&lt;font style=&quot;font-size: 16px;&quot;&gt;Export Logs as PDF&lt;/font&gt;" style="ellipse;whiteSpace=wrap;html=1;container=0;" vertex="1" parent="UhSYlFksJlborrTGf3yx-25">
          <mxGeometry x="250" y="390" width="170" height="80" as="geometry" />
        </mxCell>
        <mxCell id="UhSYlFksJlborrTGf3yx-12" value="&lt;font style=&quot;font-size: 16px;&quot;&gt;View Packet Details&lt;/font&gt;" style="ellipse;whiteSpace=wrap;html=1;container=0;" vertex="1" parent="UhSYlFksJlborrTGf3yx-25">
          <mxGeometry x="250" y="170" width="170" height="80" as="geometry" />
        </mxCell>
        <mxCell id="UhSYlFksJlborrTGf3yx-13" value="" style="endArrow=none;html=1;rounded=0;exitX=0.5;exitY=0.5;exitDx=0;exitDy=0;exitPerimeter=0;entryX=0;entryY=0.5;entryDx=0;entryDy=0;" edge="1" parent="UhSYlFksJlborrTGf3yx-25" source="UhSYlFksJlborrTGf3yx-5" target="UhSYlFksJlborrTGf3yx-8">
          <mxGeometry width="50" height="50" relative="1" as="geometry">
            <mxPoint x="280" y="310" as="sourcePoint" />
            <mxPoint x="330" y="260" as="targetPoint" />
          </mxGeometry>
        </mxCell>
        <mxCell id="UhSYlFksJlborrTGf3yx-14" value="" style="endArrow=none;html=1;rounded=0;entryX=0;entryY=0.5;entryDx=0;entryDy=0;exitX=0.5;exitY=0.5;exitDx=0;exitDy=0;exitPerimeter=0;" edge="1" parent="UhSYlFksJlborrTGf3yx-25" source="UhSYlFksJlborrTGf3yx-5" target="UhSYlFksJlborrTGf3yx-12">
          <mxGeometry width="50" height="50" relative="1" as="geometry">
            <mxPoint x="-5" y="140" as="sourcePoint" />
            <mxPoint x="260" y="100" as="targetPoint" />
          </mxGeometry>
        </mxCell>
        <mxCell id="UhSYlFksJlborrTGf3yx-15" value="" style="endArrow=none;html=1;rounded=0;entryX=0;entryY=0.5;entryDx=0;entryDy=0;exitX=0.5;exitY=0.5;exitDx=0;exitDy=0;exitPerimeter=0;" edge="1" parent="UhSYlFksJlborrTGf3yx-25" source="UhSYlFksJlborrTGf3yx-5" target="UhSYlFksJlborrTGf3yx-9">
          <mxGeometry width="50" height="50" relative="1" as="geometry">
            <mxPoint x="5" y="150" as="sourcePoint" />
            <mxPoint x="260" y="220" as="targetPoint" />
          </mxGeometry>
        </mxCell>
        <mxCell id="UhSYlFksJlborrTGf3yx-16" value="" style="endArrow=none;html=1;rounded=0;entryX=0;entryY=0.5;entryDx=0;entryDy=0;exitX=0.5;exitY=0.5;exitDx=0;exitDy=0;exitPerimeter=0;" edge="1" parent="UhSYlFksJlborrTGf3yx-25" source="UhSYlFksJlborrTGf3yx-5" target="UhSYlFksJlborrTGf3yx-11">
          <mxGeometry width="50" height="50" relative="1" as="geometry">
            <mxPoint x="5" y="150" as="sourcePoint" />
            <mxPoint x="260" y="330" as="targetPoint" />
          </mxGeometry>
        </mxCell>
        <mxCell id="UhSYlFksJlborrTGf3yx-17" value="" style="endArrow=none;html=1;rounded=0;entryX=0;entryY=0.5;entryDx=0;entryDy=0;exitX=0.5;exitY=0.5;exitDx=0;exitDy=0;exitPerimeter=0;" edge="1" parent="UhSYlFksJlborrTGf3yx-25" source="UhSYlFksJlborrTGf3yx-5" target="UhSYlFksJlborrTGf3yx-10">
          <mxGeometry width="50" height="50" relative="1" as="geometry">
            <mxPoint x="5" y="150" as="sourcePoint" />
            <mxPoint x="260" y="440" as="targetPoint" />
          </mxGeometry>
        </mxCell>
        <mxCell id="UhSYlFksJlborrTGf3yx-19" value="&lt;span style=&quot;font-size: 16px;&quot;&gt;Stop Packet Caputre&lt;/span&gt;" style="ellipse;whiteSpace=wrap;html=1;container=0;" vertex="1" parent="UhSYlFksJlborrTGf3yx-25">
          <mxGeometry x="250" y="630" width="170" height="80" as="geometry" />
        </mxCell>
        <mxCell id="UhSYlFksJlborrTGf3yx-20" value="" style="endArrow=none;html=1;rounded=0;entryX=0;entryY=0.5;entryDx=0;entryDy=0;exitX=0.5;exitY=0.5;exitDx=0;exitDy=0;exitPerimeter=0;" edge="1" parent="UhSYlFksJlborrTGf3yx-25" source="UhSYlFksJlborrTGf3yx-5" target="UhSYlFksJlborrTGf3yx-19">
          <mxGeometry width="50" height="50" relative="1" as="geometry">
            <mxPoint x="55" y="330" as="sourcePoint" />
            <mxPoint x="260" y="560" as="targetPoint" />
          </mxGeometry>
        </mxCell>
      </root>
    </mxGraphModel>
  </diagram>
</mxfile>
